<svg width="137" height="86" viewBox="0 0 137 86" fill="none" xmlns="http://www.w3.org/2000/svg">
<path d="M34.4375 62.6992H27.2305L27.1914 59.6719H33.7344C34.8151 59.6719 35.7591 59.4896 36.5664 59.125C37.3737 58.7604 37.9987 58.2396 38.4414 57.5625C38.8971 56.8724 39.125 56.0521 39.125 55.1016C39.125 54.0599 38.9232 53.2135 38.5195 52.5625C38.1289 51.8984 37.5234 51.4167 36.7031 51.1172C35.8958 50.8047 34.8672 50.6484 33.6172 50.6484H28.0703V76H24.3008V47.5625H33.6172C35.0755 47.5625 36.3776 47.7122 37.5234 48.0117C38.6693 48.2982 39.6393 48.7539 40.4336 49.3789C41.2409 49.9909 41.8529 50.7721 42.2695 51.7227C42.6862 52.6732 42.8945 53.8125 42.8945 55.1406C42.8945 56.3125 42.5951 57.3737 41.9961 58.3242C41.3971 59.2617 40.5638 60.0299 39.4961 60.6289C38.4414 61.2279 37.2044 61.612 35.7852 61.7812L34.4375 62.6992ZM34.2617 76H25.7461L27.875 72.9336H34.2617C35.4596 72.9336 36.4753 72.7253 37.3086 72.3086C38.1549 71.8919 38.7995 71.306 39.2422 70.5508C39.6849 69.7826 39.9062 68.8776 39.9062 67.8359C39.9062 66.7812 39.7174 65.8698 39.3398 65.1016C38.9622 64.3333 38.3698 63.7409 37.5625 63.3242C36.7552 62.9076 35.7135 62.6992 34.4375 62.6992H29.0664L29.1055 59.6719H36.4492L37.25 60.7656C38.6172 60.8828 39.776 61.2734 40.7266 61.9375C41.6771 62.5885 42.3997 63.4219 42.8945 64.4375C43.4023 65.4531 43.6562 66.5729 43.6562 67.7969C43.6562 69.5677 43.2656 71.0651 42.4844 72.2891C41.7161 73.5 40.6289 74.4245 39.2227 75.0625C37.8164 75.6875 36.1628 76 34.2617 76ZM71.1172 60.8828V62.6797C71.1172 64.8151 70.8503 66.7292 70.3164 68.4219C69.7826 70.1146 69.0143 71.5534 68.0117 72.7383C67.0091 73.9232 65.8047 74.8281 64.3984 75.4531C63.0052 76.0781 61.4427 76.3906 59.7109 76.3906C58.0312 76.3906 56.4883 76.0781 55.082 75.4531C53.6888 74.8281 52.4779 73.9232 51.4492 72.7383C50.4336 71.5534 49.6458 70.1146 49.0859 68.4219C48.526 66.7292 48.2461 64.8151 48.2461 62.6797V60.8828C48.2461 58.7474 48.5195 56.8398 49.0664 55.1602C49.6263 53.4674 50.4141 52.0286 51.4297 50.8438C52.4453 49.6458 53.6497 48.7344 55.043 48.1094C56.4492 47.4844 57.9922 47.1719 59.6719 47.1719C61.4036 47.1719 62.9661 47.4844 64.3594 48.1094C65.7656 48.7344 66.9701 49.6458 67.9727 50.8438C68.9883 52.0286 69.763 53.4674 70.2969 55.1602C70.8438 56.8398 71.1172 58.7474 71.1172 60.8828ZM67.3867 62.6797V60.8438C67.3867 59.151 67.2109 57.6536 66.8594 56.3516C66.5208 55.0495 66.0195 53.9557 65.3555 53.0703C64.6914 52.1849 63.8776 51.5143 62.9141 51.0586C61.9635 50.6029 60.8828 50.375 59.6719 50.375C58.5 50.375 57.4388 50.6029 56.4883 51.0586C55.5508 51.5143 54.7435 52.1849 54.0664 53.0703C53.4023 53.9557 52.888 55.0495 52.5234 56.3516C52.1589 57.6536 51.9766 59.151 51.9766 60.8438V62.6797C51.9766 64.3854 52.1589 65.8958 52.5234 67.2109C52.888 68.513 53.4089 69.6133 54.0859 70.5117C54.776 71.3971 55.5898 72.0677 56.5273 72.5234C57.4779 72.9792 58.5391 73.207 59.7109 73.207C60.9349 73.207 62.0221 72.9792 62.9727 72.5234C63.9232 72.0677 64.724 71.3971 65.375 70.5117C66.0391 69.6133 66.5404 68.513 66.8789 67.2109C67.2174 65.8958 67.3867 64.3854 67.3867 62.6797ZM98.6562 60.8828V62.6797C98.6562 64.8151 98.3893 66.7292 97.8555 68.4219C97.3216 70.1146 96.5534 71.5534 95.5508 72.7383C94.5482 73.9232 93.3438 74.8281 91.9375 75.4531C90.5443 76.0781 88.9818 76.3906 87.25 76.3906C85.5703 76.3906 84.0273 76.0781 82.6211 75.4531C81.2279 74.8281 80.0169 73.9232 78.9883 72.7383C77.9727 71.5534 77.1849 70.1146 76.625 68.4219C76.0651 66.7292 75.7852 64.8151 75.7852 62.6797V60.8828C75.7852 58.7474 76.0586 56.8398 76.6055 55.1602C77.1654 53.4674 77.9531 52.0286 78.9688 50.8438C79.9844 49.6458 81.1888 48.7344 82.582 48.1094C83.9883 47.4844 85.5312 47.1719 87.2109 47.1719C88.9427 47.1719 90.5052 47.4844 91.8984 48.1094C93.3047 48.7344 94.5091 49.6458 95.5117 50.8438C96.5273 52.0286 97.3021 53.4674 97.8359 55.1602C98.3828 56.8398 98.6562 58.7474 98.6562 60.8828ZM94.9258 62.6797V60.8438C94.9258 59.151 94.75 57.6536 94.3984 56.3516C94.0599 55.0495 93.5586 53.9557 92.8945 53.0703C92.2305 52.1849 91.4167 51.5143 90.4531 51.0586C89.5026 50.6029 88.4219 50.375 87.2109 50.375C86.0391 50.375 84.9779 50.6029 84.0273 51.0586C83.0898 51.5143 82.2826 52.1849 81.6055 53.0703C80.9414 53.9557 80.4271 55.0495 80.0625 56.3516C79.6979 57.6536 79.5156 59.151 79.5156 60.8438V62.6797C79.5156 64.3854 79.6979 65.8958 80.0625 67.2109C80.4271 68.513 80.9479 69.6133 81.625 70.5117C82.3151 71.3971 83.1289 72.0677 84.0664 72.5234C85.0169 72.9792 86.0781 73.207 87.25 73.207C88.474 73.207 89.5612 72.9792 90.5117 72.5234C91.4622 72.0677 92.263 71.3971 92.9141 70.5117C93.5781 69.6133 94.0794 68.513 94.418 67.2109C94.7565 65.8958 94.9258 64.3854 94.9258 62.6797ZM108.07 47.5625V76H104.301V47.5625H108.07ZM125.238 47.5625L113.422 60.8242L106.781 67.7188L106.156 63.6953L111.156 58.1875L120.707 47.5625H125.238ZM121.605 76L111.078 62.1328L113.324 59.1445L126.098 76H121.605Z" fill="#FAF6D2"/>
<path d="M28.232 9.24C28.232 10.936 27.8 12.776 26.936 14.76C26.104 16.744 25.08 18.616 23.864 20.376C22.648 22.104 21.432 23.8 20.216 25.464C17.304 29.4 15.848 32.312 15.848 34.2C15.848 34.776 16.008 35.256 16.328 35.64C16.68 35.992 17.16 36.168 17.768 36.168C20.808 36.168 26.12 32.024 33.704 23.736C34.824 22.552 35.672 21.496 36.248 20.568L36.536 20.184C36.76 19.832 36.984 19.656 37.208 19.656C37.976 19.752 38.36 19.992 38.36 20.376C38.36 20.504 38.312 20.648 38.216 20.808L36.008 24.36C35.784 24.712 34.44 26.904 31.976 30.936C29.512 34.968 27.56 38.12 26.12 40.392C27.848 39.976 29.592 39.768 31.352 39.768C33.112 39.768 34.024 40.264 34.088 41.256C34.088 41.8 33.864 42.248 33.416 42.6C32.68 43.176 32.104 43.464 31.688 43.464C31.272 43.464 31.064 43.416 31.064 43.32C31.064 43.224 31.192 43.112 31.448 42.984C31.704 42.856 31.88 42.744 31.976 42.648C32.104 42.584 32.232 42.504 32.36 42.408C32.648 42.184 32.792 41.976 32.792 41.784C32.792 41.336 31.992 41.112 30.392 41.112C28.792 41.112 27.048 41.368 25.16 41.88C17.352 54.104 12.008 60.216 9.128 60.216C8.296 60.216 7.88 59.704 7.88 58.68C7.88 56.408 9.432 53.336 12.536 49.464C15.672 45.624 19.416 42.856 23.768 41.16C24.984 39.112 26.584 36.344 28.568 32.856C30.584 29.336 31.864 27.128 32.408 26.232C30.104 28.824 27.576 31.224 24.824 33.432C23.64 34.424 22.296 35.32 20.792 36.12C19.32 36.92 18.04 37.32 16.952 37.32C16.536 37.32 16.136 37.272 15.752 37.176C15.4 37.08 15.016 36.808 14.6 36.36C14.216 35.88 14.024 35.096 14.024 34.008C14.024 32.888 14.44 31.464 15.272 29.736C16.104 27.976 17.112 26.28 18.296 24.648C19.512 22.984 20.728 21.336 21.944 19.704C24.792 15.864 26.216 12.792 26.216 10.488C26.216 8.664 25.768 7.336 24.872 6.504C24.008 5.672 22.552 5.256 20.504 5.256C18.456 5.256 16.296 5.736 14.024 6.696C11.784 7.624 9.864 8.776 8.264 10.152C6.632 11.496 5.304 12.904 4.28 14.376C3.256 15.816 2.744 17.064 2.744 18.12C2.744 19.592 3.704 20.328 5.624 20.328C10.328 20.328 14.872 17.384 19.256 11.496C19.416 11.176 19.56 11.016 19.688 11.016C19.848 11.016 19.928 11.208 19.928 11.592C19.928 11.976 19.448 12.76 18.488 13.944C17.56 15.128 16.408 16.36 15.032 17.64C13.656 18.92 12.04 20.04 10.184 21C8.328 21.96 6.616 22.44 5.048 22.44C2.296 22.44 0.92 21.4 0.92 19.32C0.92 18.008 1.496 16.504 2.648 14.808C3.8 13.08 5.304 11.432 7.16 9.864C9.016 8.296 11.272 6.984 13.928 5.928C16.616 4.84 19.32 4.296 22.04 4.296C23.192 4.296 24.184 4.472 25.016 4.824C25.88 5.144 26.52 5.544 26.936 6.024C27.672 6.952 28.088 7.864 28.184 8.76L28.232 9.24ZM9.56 57.048C9.56 57.72 9.8 58.056 10.28 58.056C12.488 58.056 16.68 52.936 22.856 42.696C19.048 44.232 15.88 46.568 13.352 49.704C10.824 52.84 9.56 55.288 9.56 57.048ZM43.8725 35.64C42.8805 36.248 41.7285 36.552 40.4165 36.552H39.8405C38.9765 37.544 38.0485 38.36 37.0565 39C36.0965 39.608 35.2645 39.912 34.5605 39.912C33.5685 39.912 33.0725 39.272 33.0725 37.992C33.0725 36.712 33.7605 35.224 35.1365 33.528C35.0085 33.176 34.9445 32.744 34.9445 32.232C34.9445 31.112 35.4245 30.152 36.3845 29.352C37.3765 28.52 38.3365 28.104 39.2645 28.104C41.2165 28.104 42.1925 29.16 42.1925 31.272C42.1925 32.68 41.5845 34.216 40.3685 35.88H40.9445C41.9685 35.88 42.8485 35.64 43.5845 35.16C43.6805 35.064 43.8085 35.016 43.9685 35.016C44.1285 35.016 44.2085 35.08 44.2085 35.208C44.2085 35.304 44.0965 35.448 43.8725 35.64ZM39.2645 30.12C39.4245 30.056 39.5525 30.024 39.6485 30.024C39.7445 30.024 39.7925 30.104 39.7925 30.264C39.7925 30.392 39.6165 30.584 39.2645 30.84C37.9845 31.832 37.0245 32.728 36.3845 33.528C37.0885 34.648 38.1605 35.384 39.6005 35.736C40.8485 34.264 41.4725 32.888 41.4725 31.608C41.4725 30.872 41.2325 30.312 40.7525 29.928C40.2725 29.544 39.6485 29.352 38.8805 29.352C38.1445 29.352 37.4565 29.576 36.8165 30.024C36.1765 30.44 35.8565 30.904 35.8565 31.416C35.8565 31.896 35.9045 32.28 36.0005 32.568C36.9925 31.544 38.0805 30.728 39.2645 30.12ZM35.7125 34.584C35.2005 35.448 34.9445 36.408 34.9445 37.464C34.9445 38.04 35.2005 38.328 35.7125 38.328C36.5765 38.328 37.6485 37.688 38.9285 36.408C37.4885 36.152 36.4165 35.544 35.7125 34.584ZM49.25 38.52C49.25 38.168 49.506 37.576 50.018 36.744C50.562 35.912 50.914 35.384 51.074 35.16C51.266 34.936 51.538 34.584 51.89 34.104C48.082 37.56 45.458 39.288 44.018 39.288C43.218 39.288 42.818 38.952 42.818 38.28C42.818 37.32 44.434 34.616 47.666 30.168C47.826 29.912 48.034 29.784 48.29 29.784C49.026 30.008 49.394 30.168 49.394 30.264C49.394 30.36 49.298 30.552 49.106 30.84C46.354 34.552 44.978 36.648 44.978 37.128C44.978 37.576 45.138 37.8 45.458 37.8C46.354 37.8 47.938 36.776 50.21 34.728C52.514 32.648 54.178 30.936 55.202 29.592C55.33 29.368 55.538 29.256 55.826 29.256C56.466 29.384 56.786 29.512 56.786 29.64C56.434 30.152 55.954 30.824 55.346 31.656C54.738 32.488 54.242 33.176 53.858 33.72C53.474 34.232 53.074 34.792 52.658 35.4C51.858 36.488 51.378 37.288 51.218 37.8C51.218 38.12 51.474 38.28 51.986 38.28C52.53 38.28 53.474 37.976 54.818 37.368C56.162 36.728 57.346 36.088 58.37 35.448L59.906 34.488C59.938 34.552 59.954 34.68 59.954 34.872C59.954 35.064 59.81 35.224 59.522 35.352C55.202 38.296 52.194 39.768 50.498 39.768C49.666 39.768 49.25 39.352 49.25 38.52ZM58.8673 35.784C58.7393 35.848 58.6273 35.88 58.5312 35.88C58.4032 35.88 58.3392 35.816 58.3392 35.688C58.3392 35.56 58.3872 35.448 58.4832 35.352C59.7953 34.616 61.2353 33.416 62.8033 31.752C61.3633 31.304 60.6433 30.68 60.6433 29.88C60.6433 29.048 61.1873 28.136 62.2753 27.144C63.3633 26.12 64.3873 25.608 65.3473 25.608C65.9873 25.608 66.3073 25.992 66.3073 26.76C66.3073 27.944 65.7153 29.208 64.5312 30.552C66.0673 30.808 66.8353 31.176 66.8353 31.656C66.8353 32.296 66.5473 32.792 65.9713 33.144C65.4273 33.464 64.7873 34.056 64.0513 34.92C63.3153 35.784 62.9473 36.648 62.9473 37.512C62.9473 37.704 63.0113 37.88 63.1393 38.04C63.2673 38.2 63.5393 38.28 63.9553 38.28C64.3713 38.28 65.2513 37.976 66.5953 37.368C67.9393 36.728 69.1233 36.088 70.1473 35.448L71.6833 34.488C71.7153 34.552 71.7313 34.68 71.7313 34.872C71.7313 35.064 71.5873 35.224 71.2993 35.352C66.9793 38.296 63.9713 39.768 62.2753 39.768C61.4433 39.768 61.0273 39.352 61.0273 38.52C61.0273 37.848 61.2513 37.144 61.6992 36.408C62.1793 35.672 62.6913 35.064 63.2353 34.584C63.8113 34.104 64.3233 33.656 64.7713 33.24C65.2513 32.792 65.4913 32.504 65.4913 32.376C65.4913 32.248 65.2833 32.168 64.8672 32.136C64.4833 32.104 63.9713 32.024 63.3313 31.896C61.5713 33.784 60.0833 35.08 58.8673 35.784ZM61.8433 29.112C61.8433 29.752 62.5473 30.2 63.9553 30.456C64.7873 29.432 65.2033 28.552 65.2033 27.816C65.2033 27.048 64.9633 26.664 64.4833 26.664C64.0033 26.664 63.4433 26.952 62.8033 27.528C62.1633 28.072 61.8433 28.6 61.8433 29.112ZM79.4555 31.224L78.2555 31.56C78.1915 31.56 78.1595 31.512 78.1595 31.416C78.1595 31.128 78.5115 30.776 79.2155 30.36C79.9515 29.944 80.5435 29.736 80.9915 29.736C81.4395 29.736 81.6635 30.696 81.6635 32.616L81.3755 37.272C81.4075 37.24 82.4795 36.072 84.5915 33.768C86.7035 31.432 88.5275 29.64 90.0635 28.392C91.6315 27.144 92.9595 26.52 94.0475 26.52C94.5275 26.552 94.7675 26.728 94.7675 27.048C94.7675 27.336 94.4795 27.72 93.9035 28.2C93.3275 28.68 92.8795 28.92 92.5595 28.92C92.2715 28.92 92.0955 28.856 92.0315 28.728C91.9675 28.6 91.8075 28.536 91.5515 28.536C91.3275 28.536 90.9435 28.712 90.3995 29.064C89.8875 29.384 89.2315 29.928 88.4315 30.696C87.6635 31.464 86.9275 32.232 86.2235 33C85.5195 33.736 84.5435 34.776 83.2955 36.12C82.0795 37.432 81.0075 38.568 80.0795 39.528C79.8235 39.752 79.5995 39.864 79.4075 39.864C79.2475 39.864 79.1675 39.8 79.1675 39.672C79.6475 37.208 79.8875 34.776 79.8875 32.376V31.464C79.7915 31.304 79.6475 31.224 79.4555 31.224ZM97.4983 24.36C97.9783 24.36 98.2183 24.6 98.2183 25.08C98.2183 25.56 97.9943 26.056 97.5463 26.568C97.0983 27.048 96.6023 27.288 96.0583 27.288C95.6103 27.288 95.3863 26.984 95.3863 26.376C95.3863 25.736 95.6423 25.24 96.1543 24.888C96.6663 24.536 97.1143 24.36 97.4983 24.36ZM92.9863 30.696C93.1463 30.44 93.3703 30.312 93.6583 30.312C93.9463 30.312 94.2343 30.456 94.5223 30.744C94.5223 30.872 94.3143 31.16 93.8983 31.608C93.4823 32.056 92.7783 33.064 91.7863 34.632C90.7943 36.168 90.2983 37.192 90.2983 37.704C90.2983 38.024 90.5383 38.216 91.0183 38.28C91.6583 38.28 92.6503 37.976 93.9943 37.368C95.3383 36.728 96.5223 36.088 97.5463 35.448L99.0823 34.488C99.1143 34.552 99.1303 34.68 99.1303 34.872C99.1303 35.064 98.9863 35.224 98.6983 35.352C94.3783 38.296 91.3703 39.768 89.6743 39.768C88.8422 39.768 88.4262 39.352 88.4262 38.52C88.4262 37.688 88.8742 36.536 89.7703 35.064C90.6983 33.56 91.7703 32.104 92.9863 30.696ZM100.6 33.768C99.0639 35.176 98.0879 35.88 97.6719 35.88C97.5439 35.88 97.4799 35.816 97.4799 35.688C97.4799 35.56 97.5279 35.448 97.6239 35.352C98.3919 34.936 99.2879 34.264 100.312 33.336C100.152 32.952 100.072 32.536 100.072 32.088C100.072 31 100.632 29.96 101.752 28.968C102.872 27.976 103.816 27.48 104.584 27.48C105 27.48 105.208 27.688 105.208 28.104C105.208 28.488 104.568 29.448 103.288 30.984C103.16 31.144 103.016 31.304 102.856 31.464C102.696 31.624 102.52 31.816 102.328 32.04C102.168 32.232 102.04 32.376 101.944 32.472C102.104 32.632 102.392 32.92 102.808 33.336C103.224 33.72 103.56 34.04 103.816 34.296C104.52 35 104.872 35.88 104.872 36.936C104.872 37.992 104.216 38.904 102.904 39.672C101.592 40.472 100.216 40.872 98.7759 40.872C97.3679 40.872 96.6639 40.44 96.6639 39.576C96.6639 38.744 97.3199 37.976 98.6319 37.272C99.9439 36.568 101.32 36.088 102.76 35.832C102.568 35.576 102.2 35.24 101.656 34.824C101.144 34.408 100.792 34.056 100.6 33.768ZM103.096 36.408C102.008 36.536 100.984 36.84 100.024 37.32C99.0639 37.768 98.5839 38.312 98.5839 38.952C98.5839 39.56 99.0159 39.864 99.8799 39.864C100.776 39.864 101.56 39.656 102.232 39.24C102.936 38.824 103.288 38.36 103.288 37.848C103.288 37.336 103.224 36.856 103.096 36.408ZM101.608 32.088L102.856 30.744C103.688 29.752 104.104 29.16 104.104 28.968C104.104 28.744 104.008 28.632 103.816 28.632C103.272 28.632 102.712 28.904 102.136 29.448C101.56 29.96 101.272 30.472 101.272 30.984C101.272 31.464 101.384 31.832 101.608 32.088ZM115.733 24.36C116.213 24.36 116.453 24.6 116.453 25.08C116.453 25.56 116.229 26.056 115.781 26.568C115.333 27.048 114.837 27.288 114.293 27.288C113.845 27.288 113.621 26.984 113.621 26.376C113.621 25.736 113.877 25.24 114.389 24.888C114.901 24.536 115.349 24.36 115.733 24.36ZM111.221 30.696C111.381 30.44 111.605 30.312 111.893 30.312C112.181 30.312 112.469 30.456 112.757 30.744C112.757 30.872 112.549 31.16 112.133 31.608C111.717 32.056 111.013 33.064 110.021 34.632C109.029 36.168 108.533 37.192 108.533 37.704C108.533 38.024 108.773 38.216 109.253 38.28C109.893 38.28 110.885 37.976 112.229 37.368C113.573 36.728 114.757 36.088 115.781 35.448L117.317 34.488C117.349 34.552 117.365 34.68 117.365 34.872C117.365 35.064 117.221 35.224 116.933 35.352C112.613 38.296 109.605 39.768 107.909 39.768C107.077 39.768 106.661 39.352 106.661 38.52C106.661 37.688 107.109 36.536 108.005 35.064C108.933 33.56 110.005 32.104 111.221 30.696ZM116.962 23.16C119.138 23.16 121.282 23.144 123.394 23.112C126.818 18.728 129.154 16.536 130.402 16.536C130.85 16.536 131.074 16.776 131.074 17.256C131.074 18.792 129.954 20.712 127.714 23.016L131.362 22.968C133.794 22.872 135.282 22.824 135.826 22.824C136.37 22.824 136.642 22.888 136.642 23.016C136.642 23.624 136.226 23.944 135.394 23.976L126.37 24.36C124.802 25.832 122.866 27.384 120.562 29.016C118.13 33.016 116.914 35.736 116.914 37.176C116.914 37.912 117.378 38.28 118.306 38.28C119.266 38.28 120.77 37.768 122.818 36.744L126.706 34.488C126.738 34.552 126.754 34.68 126.754 34.872C126.754 35.064 126.61 35.224 126.322 35.352C125.298 36.056 124.178 36.76 122.962 37.464C120.37 38.776 118.386 39.432 117.01 39.432C116.37 39.432 115.874 39.304 115.522 39.048C115.17 38.792 114.978 38.536 114.946 38.28L114.85 37.896C114.85 36.808 115.586 34.984 117.058 32.424C118.53 29.832 120.274 27.192 122.29 24.504C120.754 24.568 119.298 24.6 117.922 24.6C116.546 24.6 115.858 24.44 115.858 24.12C115.858 23.512 116.226 23.192 116.962 23.16ZM129.586 18.264C129.586 18.104 129.522 18.024 129.394 18.024C128.658 18.024 127.026 19.704 124.498 23.064H126.898C128.69 21.112 129.586 19.512 129.586 18.264ZM125.554 24.408C124.53 24.408 123.842 24.424 123.49 24.456C123.202 24.872 122.802 25.48 122.29 26.28C121.778 27.08 121.426 27.624 121.234 27.912C122.898 26.696 124.338 25.528 125.554 24.408Z" fill="#FAF6D2"/>
</svg>
