<svg width="300" height="41" viewBox="0 0 300 41" fill="none" xmlns="http://www.w3.org/2000/svg">
<path d="M79.0877 0.626305C75.2429 1.60878 71.8584 4.42945 70.5859 7.69382C69.7195 9.97571 69.8007 12.6696 70.8296 14.6346C73.0227 18.7546 78.7086 21.2584 86.7772 21.607C92.5985 21.8605 96.7411 20.9098 103.537 17.7722L105.92 16.6629L106.705 17.3285C107.138 17.7088 107.49 18.1208 107.49 18.2159C107.49 18.406 98.3115 23.7304 96.2537 24.7129C90.0805 27.7237 84.6924 28.9914 78.3296 28.9914C74.1057 28.9914 72.9144 28.8013 66.6057 27.1849C58.7538 25.1883 54.178 25.632 51.1184 28.6745C48.1671 31.6536 47.9505 35.5836 50.604 38.2458C53.3657 41.0031 57.6166 40.591 60.1617 37.295C61.2718 35.8371 61.6509 34.4426 61.1635 33.3651C60.7574 32.446 60.4054 32.1607 59.6473 32.1607C58.7538 32.1607 58.6455 32.6995 59.4848 33.1749C60.4595 33.7137 60.5678 34.6011 59.7827 35.9639C58.8621 37.5485 56.9126 38.5944 54.9902 38.5944C53.2845 38.5627 52.2285 38.0873 51.1184 36.7562C49.6022 34.9814 49.8188 32.7629 51.7141 30.5444C53.3928 28.5794 55.2068 27.8822 58.6184 27.9456C60.9469 27.9773 62.4361 28.2625 69.1779 30.069C78.4379 32.5727 87.5624 31.6536 96.8494 27.28C98.4469 26.5194 102.075 24.6178 104.891 23.0332L109.981 20.1174L111.795 21.3535C117.833 25.4418 124.142 26.2342 128.961 23.4769C132.156 21.6387 133.483 19.8322 133.483 17.2651C133.483 15.7438 133.023 14.6029 131.94 13.3985C130.721 12.0357 129.422 11.5604 126.904 11.5604C122.734 11.5604 118.131 12.8598 112.987 15.4269L110.469 16.6946L109.629 15.9657C108.844 15.3318 108.817 15.2367 109.277 14.9515C110.766 13.969 116.154 11.3702 118.916 10.2609C129.882 5.98241 138.79 7.88398 148.266 16.6312C149.295 17.582 149.864 17.9306 149.945 17.6454C150.026 17.3285 150.135 17.3285 150.432 17.6137C150.73 17.8989 151.19 17.6137 152.626 16.2192C156.118 12.8915 160.369 10.3243 164.755 8.96154C166.542 8.35937 167.653 8.26429 171.254 8.26429C175.071 8.26429 175.911 8.35937 178.348 9.08831C181.055 9.91232 186.199 12.1942 189.936 14.1909L191.804 15.2367L190.938 15.9657L190.071 16.6946L187.147 15.2684C181.867 12.6696 177.833 11.5604 173.718 11.5604C170.956 11.5604 169.629 12.0991 168.302 13.6521C167.328 14.8247 167.057 15.6487 167.057 17.5503C167.057 19.5787 168.113 21.2901 170.306 22.7796C172.797 24.4911 174.584 25.0298 177.887 24.9981C181.515 24.9664 184.088 24.1741 187.851 21.8605L190.667 20.1491L194.079 22.1458C204.178 28.0724 210.243 30.4493 217.228 31.2416C222.508 31.8438 226.678 31.3684 233.663 29.4668C239.43 27.9139 241.84 27.5653 244.088 28.009C247.418 28.7062 249.53 30.4493 250.207 33.1115C250.477 34.1891 250.45 34.5694 250.071 35.5836C248.582 39.4184 242.95 39.6403 240.676 35.9322C239.972 34.7596 240.107 33.7137 241.055 33.1749C241.867 32.7312 241.813 32.1607 240.947 32.1607C238.727 32.1607 238.537 35.2983 240.595 37.707C241.921 39.2599 243.384 39.9255 245.577 39.9255C247.932 39.9255 249.286 39.2282 250.667 37.4218C253.293 33.9038 251.046 28.5477 246.118 26.5828C244.981 26.1391 243.898 26.0123 241.515 26.0123C238.456 26.044 236.858 26.3609 229.873 28.2625C228.302 28.6745 226.569 28.8013 222.156 28.833C215.631 28.833 213.14 28.3893 207.508 26.1074C204.34 24.8714 193.05 18.6596 193.05 18.1842C193.05 18.0574 193.402 17.6454 193.835 17.2968L194.62 16.6312L196.57 17.582C203.095 20.7196 208.05 21.8922 213.871 21.607C225.107 21.0682 231.606 16.2826 230.414 9.50032C229.656 5.22178 226.136 1.79894 221.208 0.594612C218.528 -0.0709381 214.006 0.150909 211.19 1.1017C206.967 2.49619 201.443 6.20425 196.326 10.9899C195.189 12.0674 194.133 13.0499 193.97 13.2084C193.781 13.3668 192.129 12.7013 189.909 11.592C182.544 7.97906 178.293 6.58457 173.393 6.26764C165.811 5.79225 158.366 8.89815 152.192 15.1733C151.218 16.1558 150.351 16.9481 150.216 16.9481C150.107 16.9481 149.349 16.2509 148.537 15.3952C144.151 10.768 138.221 7.47197 132.4 6.4578C126.091 5.38024 119.647 7.02827 109.142 12.321L106.867 13.4936L105.757 12.4478C100.423 7.40858 95.8747 4.01744 92.057 2.17926C88.1581 0.341068 82.8241 -0.324482 79.0877 0.626305ZM88.9433 4.2076C91.1093 4.99992 94.3043 6.77473 96.2808 8.20091C98.3927 9.78555 103.7 14.4761 103.7 14.7613C103.7 15.1417 99.7194 16.8214 96.4974 17.8039C93.7357 18.6279 93.2212 18.6913 88.2664 18.6913C83.6364 18.6596 82.7158 18.5962 80.7122 17.9623C74.7826 16.0607 72.5624 14.1592 72.5624 10.9582C72.5624 7.97906 74.7826 5.47532 78.7898 3.89067C80.7935 3.09835 86.5064 3.28851 88.9433 4.2076ZM221.506 3.82729C224.403 4.84146 226.515 6.55288 227.463 8.73969C228.844 11.9407 227.301 14.9198 223.266 16.6946C219.99 18.1525 217.932 18.5962 213.221 18.7546C209.214 18.8814 208.239 18.818 205.775 18.2159C203.284 17.6454 197.896 15.7121 196.894 15.0783C196.678 14.9198 197.301 14.1592 198.79 12.7647C203.609 8.32768 208.483 5.12669 212.328 3.95406C214.9 3.16174 219.421 3.09835 221.506 3.82729ZM129.367 15.0466C131.29 16.0607 131.452 18.0257 129.719 19.4519C129.286 19.8322 128.203 20.5294 127.337 21.0048C125.929 21.7655 125.441 21.8605 122.788 21.8605C120.676 21.8605 119.349 21.6704 118.212 21.2901C116.452 20.6562 113.176 18.8814 113.176 18.5328C113.176 18.4377 114.232 17.8989 115.559 17.3602C122.274 14.5078 126.904 13.7472 129.367 15.0466ZM180.405 15.6804C183.275 16.5361 186.687 17.994 187.174 18.5011C187.499 18.8814 183.167 21.0682 181.028 21.607C178.077 22.3359 175.153 22.019 172.743 20.7196C170.793 19.6737 169.494 18.3109 169.494 17.2968C169.494 16.4094 170.523 15.0783 171.47 14.7296C172.905 14.2226 177.075 14.6663 180.405 15.6804Z" fill="black"/>
<path d="M0 20.1176V21.0684L34.0613 21.005L68.0956 20.9099V20.1176V19.3253L34.0613 19.2302L0 19.1668V20.1176Z" fill="black"/>
<path d="M232.04 20.1173V21.0681H266.02H300V20.1173V19.1665H266.02H232.04V20.1173Z" fill="black"/>
</svg>
