<svg width="18" height="18" viewBox="0 0 18 18" fill="none" xmlns="http://www.w3.org/2000/svg">
<path fill-rule="evenodd" clip-rule="evenodd" d="M9 9C11.0711 9 12.75 7.15317 12.75 4.875C12.75 2.59683 11.0711 0.75 9 0.75C6.92893 0.75 5.25 2.59683 5.25 4.875C5.25 7.15317 6.92893 9 9 9ZM9 7.35C7.75736 7.35 6.75 6.2419 6.75 4.875C6.75 3.50809 7.75736 2.4 9 2.4C10.2426 2.4 11.25 3.50809 11.25 4.875C11.25 6.2419 10.2426 7.35 9 7.35Z" fill="#FAF6D2"/>
<path fill-rule="evenodd" clip-rule="evenodd" d="M14.3272 10.5815C13.6953 9.94755 12.7177 9.81081 11.9371 10.274C11.7943 10.3588 11.6686 10.4363 11.5527 10.5079C11.2453 10.6976 11.0066 10.8449 10.699 10.9713C10.3125 11.1301 9.81262 11.25 9 11.25C8.19511 11.25 7.68694 11.1368 7.29457 10.9835C6.94766 10.848 6.67367 10.6778 6.31263 10.4534C6.24222 10.4096 6.16836 10.3637 6.09014 10.3157C5.3069 9.83492 4.30098 9.94664 3.64811 10.6064C3.36333 10.8942 3.03027 11.2664 2.76367 11.672C2.50952 12.0586 2.25 12.5728 2.25 13.125V15.0002C2.25 16.243 3.2575 17.25 4.5 17.25H13.5C14.7425 17.25 15.75 16.243 15.75 15.0002V13.125C15.75 12.5656 15.4835 12.0444 15.2247 11.6543C14.9527 11.2446 14.6139 10.8692 14.3272 10.5815ZM12.7025 11.564C12.8819 11.4576 13.1085 11.4837 13.2647 11.6404C13.5161 11.8926 13.7793 12.1891 13.9749 12.4838C14.1835 12.7981 14.25 13.014 14.25 13.125V15.0002C14.25 15.4143 13.9144 15.75 13.5 15.75H4.5C4.08564 15.75 3.75 15.4143 3.75 15.0002V13.125C3.75 13.0162 3.81412 12.8047 4.0171 12.4959C4.20763 12.2061 4.46518 11.9133 4.71434 11.6615C4.87059 11.5036 5.10829 11.4731 5.30542 11.5941C5.36746 11.6322 5.43065 11.6716 5.49521 11.7119C5.85704 11.9378 6.26189 12.1905 6.74877 12.3807C7.34478 12.6135 8.04314 12.75 9 12.75C9.97515 12.75 10.6735 12.6034 11.2691 12.3587C11.7004 12.1815 12.081 11.9461 12.4169 11.7384C12.5159 11.6771 12.6111 11.6183 12.7025 11.564Z" fill="#FAF6D2"/>
</svg>
