<svg width="460" height="85" viewBox="0 0 460 85" fill="none" xmlns="http://www.w3.org/2000/svg">
<path d="M426.231 71.8891L425.626 82.5649C425.568 83.7437 425.667 84.6823 426.854 84.6823L427.304 84.6499V85C426.641 85 425.416 84.8284 425.064 84.8284C424.75 84.8284 424.08 85 423.583 85C423.123 85 423.045 85 422.717 84.9539V84.6332L423.373 84.6823C423.827 84.6823 424.75 84.6823 424.946 82.2903L425.731 71.3271C425.853 69.7482 424.912 69.6786 424.033 69.6786V69.4108C424.808 69.3481 424.912 69.3481 425.152 69.3481C425.731 69.3481 426.992 69.3814 427.239 70.0091L432.208 82.0726L436.838 70.8809C437.393 69.4667 438.567 69.3481 439.517 69.3481C439.944 69.3481 440.194 69.3814 440.481 69.4108V69.7217L439.923 69.6786L439.291 69.7217C438.848 70.1346 438.523 70.4219 438.665 71.687L439.636 82.4855C439.73 83.7016 439.987 84.6823 441.11 84.6823L441.8 84.593V84.9206C441.496 84.9765 441.222 85 440.836 85C440.508 85 439.196 84.8284 438.946 84.8284C438.591 84.8284 437.079 85 436.754 85C436.395 85 436.331 85 436.162 84.9765V84.6499L436.74 84.6823C437.938 84.6823 438.022 83.9026 438.022 83.0474C438.022 82.9484 438.022 82.4325 437.961 81.7519L437.048 71.9783H436.994L431.849 84.2998L431.39 84.3881L426.296 71.8891H426.231ZM282.006 76.9004C282.006 72.0538 278.448 68.9803 273.422 68.9803C268.545 68.9803 264.736 72.9786 264.736 77.2211C264.736 81.3283 267.655 84.999 273.473 84.999C279.077 84.999 282.006 80.2377 282.006 76.9004ZM147.557 76.9004C147.557 72.0538 143.999 68.9803 138.973 68.9803C134.092 68.9803 130.287 72.9786 130.287 77.2211C130.287 81.3283 133.202 84.999 139.027 84.999C144.638 84.999 147.557 80.2377 147.557 76.9004ZM460 76.9004C460 80.2377 457.074 84.999 451.48 84.999C445.656 84.999 442.723 81.3283 442.723 77.2211C442.723 72.9786 446.545 68.9803 451.416 68.9803C456.442 68.9803 460 72.0538 460 76.9004ZM360.973 76.9004C360.973 72.0538 357.411 68.9803 352.385 68.9803C347.514 68.9803 343.702 72.9786 343.702 77.2211C343.702 81.3283 346.632 84.999 352.442 84.999C358.061 84.999 360.973 80.2377 360.973 76.9004ZM225.488 69.5324V69.1892C225.687 69.1892 226.019 69.1559 226.685 69.1559C227.538 69.1559 228.231 69.2157 228.417 69.3373L229.049 69.7904L240.499 82.3923V72.0538C240.499 70.7554 240.343 70.2895 240.032 69.9689C239.842 69.7011 239.271 69.5324 238.929 69.5324L238.29 69.556V69.1892C238.452 69.1559 239.051 69.1559 239.46 69.1559C239.802 69.1559 240.248 69.2549 240.928 69.2549C241.534 69.2549 242.075 69.1559 242.548 69.1559L243.174 69.1892V69.556L242.697 69.5324C241.534 69.5324 241.148 70.0277 241.148 72.0538V84.6322L240.972 84.9627L240.779 84.999L240.434 84.9363L228.383 71.3791V81.9265C228.383 83.2318 228.545 83.6908 228.86 84.0144C229.049 84.2792 229.621 84.4636 229.953 84.4636L230.588 84.4341V84.7813C230.429 84.8107 229.821 84.8107 229.425 84.8107C229.08 84.8107 228.644 84.7352 227.947 84.7352C227.338 84.7352 226.817 84.8107 226.343 84.8107L225.711 84.7813V84.4341L226.181 84.4636C227.338 84.4636 227.73 83.9516 227.73 81.9265V70.6161L227.128 70.061C226.662 69.6089 226.543 69.5324 225.873 69.5324H225.488ZM128.894 69.1892V69.556L128.42 69.5324C127.257 69.5324 126.881 70.0277 126.881 72.0538V84.6322L126.692 84.9627L126.502 84.999L126.157 84.9363L114.106 71.3791V81.9265C114.106 83.2318 114.265 83.6908 114.58 84.0144C114.769 84.2792 115.331 84.4636 115.682 84.4636L116.311 84.4341V84.7813C116.172 84.8068 115.704 84.8107 115.318 84.8107H115.158C114.817 84.8107 114.384 84.7391 113.73 84.7352H113.666C113.08 84.7352 112.573 84.8058 112.108 84.8107H112.063L111.431 84.7813V84.4341L111.908 84.4636H111.935C113.067 84.4557 113.45 83.936 113.45 81.9265V70.6161L112.851 70.061C112.378 69.6089 112.246 69.5324 111.59 69.5324H111.211V69.1892C111.407 69.1892 111.759 69.1559 112.415 69.1559H112.494C113.306 69.1598 113.953 69.2196 114.147 69.3373L114.769 69.7904L126.222 82.3923V72.0538C126.222 70.7554 126.066 70.2895 125.748 69.9689C125.568 69.705 125.021 69.5373 124.662 69.5324H124.646L124.027 69.556V69.1892C124.172 69.1559 124.777 69.1559 125.19 69.1559H125.223C125.565 69.1617 125.983 69.2549 126.661 69.2549H126.689C127.273 69.252 127.802 69.1559 128.258 69.1559L128.894 69.1892ZM387.105 81.9265L387.45 82.0383C386.547 83.4162 385.376 84.0144 384.497 84.3743C383.242 84.8764 382.011 84.9627 380.468 84.9627C374.631 84.9627 371.817 80.7761 371.817 77.5516C371.817 70.5435 377.759 68.9803 380.367 68.9803C381.476 68.9803 382.143 69.1892 383.455 69.6089C384.223 69.8531 384.399 69.9061 385.069 69.9061C385.539 69.9061 385.765 69.8531 386.195 69.6648C386.195 70.7554 386.702 71.3467 386.702 72.6285C386.702 73.1669 386.641 73.5239 386.547 73.8838L386.259 73.8181C386.323 73.62 386.384 73.4376 386.384 73.1669C386.384 71.485 383.053 69.5324 380.468 69.5324C377.715 69.5324 373.944 71.485 373.944 76.6062C373.944 80.2377 375.852 84.4047 381.104 84.4047C381.601 84.4047 382.589 84.4047 384.087 83.9516C385.413 83.5584 386.604 82.7591 387.105 81.9265ZM96.123 78.8814H95.903C95.794 77.1829 95.139 76.8906 92.57 76.8798H92.423C91.924 76.8798 91.357 76.8887 90.711 76.8994V83.2965C90.711 83.983 91.32 84.3076 91.908 84.3076H93.508C93.567 84.3076 95.156 84.3066 96.721 83.58C98.456 82.7905 98.483 82.5532 98.571 81.8853H98.893C98.805 82.4639 98.741 82.7209 98.352 83.2661L97.134 84.9353C95.882 84.7843 91.669 84.7362 90.042 84.7333H89.892C89.165 84.7333 88.399 84.8048 87.667 84.8088L87.596 84.8097L86.869 84.7568V84.4028L87.477 84.4626H87.5C87.74 84.4587 88.133 84.3969 88.421 84.2184C88.817 83.8379 88.979 83.2661 88.979 82.3384V71.2555C88.979 70.3876 88.906 69.5442 87.696 69.5315H87.667C87.371 69.5315 87.295 69.5315 87.093 69.5491L86.997 69.5579V69.2137C87.278 69.1578 87.504 69.1284 87.914 69.1284H87.966C88.558 69.1362 90.655 69.2539 91.127 69.2539H94.898L96.501 69.2137L96.515 69.249C96.673 69.6423 97.283 70.9378 97.408 71.2192C97.614 71.7027 97.627 71.8871 97.628 72.2725V72.3529H97.381C97.351 70.2876 93.994 69.7708 91.9 69.7629H91.851C91.506 69.7629 90.711 69.7923 90.711 70.3445V76.3277H93.481C94.986 76.3277 95.304 75.5578 95.304 75.2009C95.304 74.9763 95.203 74.6958 95.155 74.4183L95.348 74.3055L95.366 74.3359C95.551 74.6389 95.553 74.7517 95.625 75.5578C95.717 76.771 95.717 76.9289 95.933 77.53C96.111 77.989 96.122 78.4274 96.123 78.8069V78.8814ZM220.482 78.8814H220.258C220.14 76.8298 219.193 76.8298 215.08 76.8994V83.2965C215.08 83.983 215.685 84.3076 216.274 84.3076H217.877C217.946 84.3076 219.505 84.3066 221.08 83.58C222.819 82.7905 222.843 82.5532 222.947 81.8853H223.262C223.171 82.4639 223.106 82.7209 222.727 83.2661L221.5 84.9353C220.198 84.7794 215.77 84.7333 214.248 84.7333C213.517 84.7333 212.726 84.8097 211.962 84.8097L211.238 84.7568V84.4028L211.846 84.4626C212.083 84.4626 212.499 84.4028 212.777 84.2184C213.189 83.8379 213.345 83.2661 213.345 82.3384V71.2555C213.345 70.3807 213.294 69.5315 212.029 69.5315C211.677 69.5315 211.647 69.5315 211.359 69.5579V69.2137C211.647 69.1578 211.874 69.1284 212.276 69.1284C212.777 69.1284 215.019 69.2539 215.489 69.2539H219.267L220.867 69.2137C220.989 69.5579 221.659 70.929 221.777 71.2192C222 71.7351 222 71.9097 222 72.3529H221.753C221.716 70.2709 218.324 69.7629 216.22 69.7629C215.865 69.7629 215.08 69.7923 215.08 70.3445V76.3277H217.847C219.366 76.3277 219.666 75.5578 219.666 75.2009C219.666 74.9763 219.579 74.6958 219.504 74.4183L219.707 74.3055C219.917 74.633 219.917 74.7252 219.981 75.5578C220.083 76.771 220.083 76.9289 220.292 77.53C220.482 78.0194 220.482 78.4852 220.482 78.8814ZM410.302 76.4258V83.1435C410.302 83.8565 410.67 84.3067 411.347 84.5008C411.651 84.5008 411.935 84.4645 412.182 84.4322V84.7558C411.935 84.7823 411.726 84.8117 411.428 84.8117C411.083 84.8117 409.886 84.6695 409.196 84.6695C408.719 84.6695 407.687 84.8117 407.278 84.8117C407.034 84.8117 406.838 84.8117 406.52 84.7558V84.4116L407.19 84.4645L407.941 84.4116C408.512 83.8369 408.631 83.526 408.631 82.5522V70.9809C408.631 70.3592 408.583 69.5305 407.457 69.5305L406.814 69.557V69.1863C407.19 69.1568 407.19 69.1568 407.67 69.1568L409.446 69.2529L411.935 69.1568C412.345 69.1568 412.818 69.1274 413.2 69.1274C416.255 69.1274 418.166 70.7103 418.166 73.0198C418.166 74.939 416.434 76.5748 413.292 76.7465C414.516 78.0684 414.739 78.4019 416.569 81.2959C417.567 82.8788 418.676 84.6332 420.107 84.6332C420.52 84.6332 420.726 84.5479 421.091 84.4116V84.6332C420.648 84.8117 420.276 84.9343 419.224 84.9343C417.286 84.9343 416.488 84.1703 414.137 80.3152C413.596 79.4355 412.057 77.074 411.563 76.8122L410.302 76.4258ZM302.921 84.5146V84.7813C302.721 84.8117 302.701 84.8117 302.319 84.8117C302.072 84.8117 300.922 84.7087 300.624 84.7087C300.09 84.7087 299.302 84.8117 298.987 84.8117C298.779 84.8117 298.684 84.8117 298.606 84.8048C298.295 84.8853 297.906 84.9343 297.261 84.9343C295.306 84.9343 294.524 84.1703 292.163 80.3152C291.626 79.4355 290.073 77.074 289.573 76.8122L288.321 76.4258V83.1435C288.321 83.8565 288.703 84.3067 289.359 84.5008C289.674 84.5008 289.955 84.4645 290.208 84.4322V84.7558C289.955 84.7823 289.735 84.8117 289.447 84.8117C289.102 84.8117 287.912 84.6695 287.218 84.6695C286.755 84.6695 285.703 84.8117 285.297 84.8117C285.044 84.8117 284.854 84.8117 284.557 84.7558V84.4116L285.199 84.4645L285.964 84.4116C286.522 83.8369 286.65 83.526 286.65 82.5522V70.9809C286.65 70.3592 286.579 69.5305 285.49 69.5305L284.834 69.557V69.1863C285.199 69.1568 285.199 69.1568 285.68 69.1568C285.964 69.1568 287.218 69.2529 287.469 69.2529L289.955 69.1568C290.371 69.1568 290.838 69.1274 291.22 69.1274C294.264 69.1274 296.185 70.7103 296.185 73.0198C296.185 74.939 294.467 76.5748 291.311 76.7465C292.539 78.0684 292.749 78.4019 294.595 81.2959C295.576 82.8788 296.689 84.6332 298.133 84.6332C298.254 84.6332 298.355 84.6264 298.446 84.6136V84.4645C298.613 84.492 298.704 84.5048 298.849 84.5077C298.928 84.4793 299.012 84.4479 299.111 84.4116V84.5057C299.179 84.5048 299.259 84.5028 299.353 84.5008C299.671 84.2792 300.276 83.8369 300.719 82.7591L306.253 69.1304L306.381 68.9813H306.625L306.787 69.1863L312.496 83.2122C312.824 83.982 312.919 84.0811 313.268 84.4047C313.548 84.5146 313.704 84.5146 313.9 84.5146L314.374 84.5008V84.7813L314.015 84.8117C313.964 84.8117 312.124 84.7087 311.766 84.7087C311.455 84.7087 310.058 84.8117 309.777 84.8117C309.412 84.8117 309.354 84.8117 309.124 84.7813V84.4645C309.584 84.5146 309.682 84.5146 310.21 84.5008C310.585 84.2792 310.731 84.1703 310.731 83.7967C310.731 83.7182 310.731 83.3838 310.585 83.0572L308.458 77.8625H303.357L301.683 81.8873C301.548 82.1844 301.284 83.0337 301.284 83.5093C301.284 84.0056 301.507 84.2498 301.683 84.4351L302.349 84.5146H302.921ZM207.099 72.6893H206.781C206.815 72.4775 206.944 71.791 206.944 71.4075C206.944 71.285 205.875 69.4913 203.923 69.4913C202.604 69.4913 201.529 70.2876 201.529 71.4566C201.529 72.0881 201.684 73.0198 204.583 75.2931L205.828 76.2845C207.759 77.7742 208.632 79.2021 208.632 80.9036C208.632 82.2217 207.823 84.8421 203.592 84.8421C201.725 84.8421 200.835 83.9497 199.442 83.9497C199.442 83.1435 199.016 81.951 199.016 81.1547C199.016 80.8673 199.016 80.4643 199.131 80.1603H199.425C199.391 80.4407 199.364 80.6359 199.364 80.9036C199.364 81.3959 199.425 81.9275 199.58 82.2217C199.608 82.2776 200.338 83.0876 201.055 83.5594C201.458 83.8575 202.259 84.4028 203.737 84.4028C205.618 84.4028 207.187 83.173 207.187 81.3293C207.187 79.413 205.469 78.0027 204.36 77.1132L203.068 76.0629C201.211 74.5722 200.193 73.7298 200.193 72.0881C200.193 70.6838 201.458 68.9989 203.791 68.9989C204.766 68.9989 205.269 69.1872 207.099 69.8512C207.282 70.4229 207.319 70.6838 207.319 71.2555C207.319 71.5262 207.319 71.9989 207.099 72.6893ZM171.125 72.6893H170.817C170.851 72.4775 170.979 71.791 170.979 71.4075C170.979 71.285 169.907 69.4913 167.962 69.4913C166.636 69.4913 165.574 70.2876 165.574 71.4566C165.574 72.0881 165.73 73.0198 168.618 75.2931L169.873 76.2845C171.804 77.7742 172.677 79.2021 172.677 80.9036C172.677 82.2217 171.855 84.8421 167.634 84.8421C165.764 84.8421 164.874 83.9497 163.501 83.9497C163.501 83.1435 163.044 81.951 163.044 81.1547C163.044 80.8673 163.044 80.4643 163.179 80.1603H163.47C163.43 80.4407 163.403 80.6359 163.403 80.9036C163.403 81.3959 163.47 81.9275 163.612 82.2217C163.656 82.2776 164.373 83.0876 165.091 83.5594C165.507 83.8575 166.291 84.4028 167.769 84.4028C169.653 84.4028 171.229 83.173 171.229 81.3293C171.229 79.413 169.494 78.0027 168.402 77.1132L167.103 76.0629C165.249 74.5722 164.248 73.7298 164.248 72.0881C164.248 70.6838 165.507 68.9989 167.83 68.9989C168.808 68.9989 169.312 69.1872 171.125 69.8512C171.327 70.4229 171.361 70.6838 171.361 71.2555C171.361 71.5262 171.361 71.9989 171.125 72.6893ZM158.583 72.6893H158.271C158.312 72.4775 158.434 71.791 158.434 71.4075C158.434 71.285 157.358 69.4913 155.417 69.4913C154.091 69.4913 153.012 70.2876 153.012 71.4566C153.012 72.0881 153.181 73.0198 156.086 75.2931L157.334 76.2845C159.256 77.7742 160.135 79.2021 160.135 80.9036C160.135 82.2217 159.313 84.8421 155.105 84.8421C153.215 84.8421 152.345 83.9497 150.962 83.9497C150.962 83.1435 150.516 81.951 150.516 81.1547C150.516 80.8673 150.516 80.4643 150.631 80.1603H150.911C150.884 80.4407 150.861 80.6359 150.861 80.9036C150.861 81.3959 150.911 81.9275 151.074 82.2217C151.104 82.2776 151.828 83.0876 152.555 83.5594C152.964 83.8575 153.742 84.4028 155.237 84.4028C157.104 84.4028 158.691 83.173 158.691 81.3293C158.691 79.413 156.956 78.0027 155.86 77.1132L154.571 76.0629C152.711 74.5722 151.71 73.7298 151.71 72.0881C151.71 70.6838 152.964 68.9989 155.285 68.9989C156.269 68.9989 156.766 69.1872 158.583 69.8512C158.785 70.4229 158.823 70.6838 158.823 71.2555C158.823 71.5262 158.823 71.9989 158.583 72.6893ZM251.691 84.4655V84.7558C251.471 84.7823 251.241 84.8127 250.846 84.8127C250.463 84.8127 249.516 84.7333 248.779 84.7333C248.103 84.7333 247.612 84.8127 246.875 84.8127L246.093 84.7823V84.4322L246.685 84.4655L247.348 84.2802C247.612 84.0428 247.828 83.6927 247.828 82.714V71.1859C247.828 70.0071 247.26 69.5305 246.8 69.5305C246.665 69.5305 246.594 69.5305 245.941 69.557V69.1872C246.225 69.1578 246.249 69.1578 246.594 69.1578C246.919 69.1578 248.403 69.3098 248.704 69.3098C249.019 69.3098 250.406 69.1578 250.683 69.1578C251.299 69.1578 251.343 69.1578 251.755 69.2529V69.5736L251.299 69.5305C249.598 69.5305 249.598 70.8927 249.598 71.5497V76.3905H258.743V71.437C258.743 70.4425 258.334 69.5305 257.637 69.5305C257.336 69.5305 256.991 69.557 256.66 69.557V69.2137C257.238 69.1872 257.428 69.1578 257.83 69.1578C258.273 69.1578 259.112 69.3098 259.633 69.3098C260.157 69.3098 260.847 69.1578 261.99 69.1578L262.488 69.1872V69.557L262.017 69.5305C261.71 69.5305 261.263 69.607 261.101 69.7355C260.922 69.8512 260.505 70.3435 260.505 71.437V82.5522C260.505 83.6594 260.922 84.1321 261.101 84.2507C261.263 84.3733 261.71 84.4655 262.017 84.4655L262.488 84.4322V84.7823L261.99 84.8127C260.847 84.8127 260.157 84.6666 259.633 84.6666C259.112 84.6666 258.273 84.8127 257.83 84.8127C257.428 84.8127 257.238 84.7823 256.66 84.7558V84.4322C256.991 84.4322 257.336 84.4655 257.637 84.4655C258.334 84.4655 258.743 83.527 258.743 82.5522V76.9289H249.598V82.7905C249.598 83.8575 250.405 84.4028 250.758 84.4655H251.691ZM177.153 84.5146V84.7813C176.95 84.8117 176.923 84.8117 176.554 84.8117C176.287 84.8117 175.164 84.7087 174.856 84.7087C174.321 84.7087 173.53 84.8117 173.216 84.8117C172.867 84.8117 172.837 84.8117 172.678 84.7813V84.4645C172.955 84.5146 173.029 84.5146 173.581 84.5008C173.905 84.2792 174.511 83.8369 174.954 82.7591L180.481 69.1304L180.616 68.9813H180.853L181.008 69.1863L186.738 83.2122C187.049 83.982 187.154 84.0811 187.502 84.4047C187.78 84.5146 187.935 84.5146 188.128 84.5146L188.602 84.5008V84.7813L188.25 84.8117C188.189 84.8117 186.352 84.7087 185.991 84.7087C185.673 84.7087 184.279 84.8117 184.008 84.8117C183.623 84.8117 183.596 84.8117 183.335 84.7813V84.4645C183.823 84.5146 183.914 84.5146 184.455 84.5008C184.82 84.2792 184.939 84.1703 184.939 83.7967C184.939 83.7182 184.939 83.3838 184.82 83.0572L182.676 77.8625H177.575L175.915 81.8873C175.793 82.1844 175.505 83.0337 175.505 83.5093C175.505 84.0056 175.725 84.2498 175.915 84.4351L176.574 84.5146H177.153ZM393.17 84.5146V84.7813C392.977 84.8117 392.94 84.8117 392.561 84.8117C392.328 84.8117 391.195 84.7087 390.883 84.7087C390.339 84.7087 389.541 84.8117 389.226 84.8117C388.895 84.8117 388.861 84.8117 388.692 84.7813V84.4645C388.983 84.5146 389.05 84.5146 389.615 84.5008C389.919 84.2792 390.515 83.8369 390.965 82.7591L396.495 69.1304L396.627 68.9813H396.887L397.039 69.1863L402.762 83.2122C403.077 83.982 403.161 84.0811 403.513 84.4047C403.811 84.5146 403.96 84.5146 404.142 84.5146L404.616 84.5008V84.7813L404.267 84.8117C404.203 84.8117 402.383 84.7087 402.008 84.7087C401.69 84.7087 400.317 84.8117 400.029 84.8117C399.637 84.8117 399.627 84.8117 399.366 84.7813V84.4645C399.843 84.5146 399.934 84.5146 400.476 84.5008C400.844 84.2792 400.973 84.1703 400.973 83.7967C400.973 83.7182 400.973 83.3838 400.844 83.0572L398.707 77.8625H393.606L391.942 81.8873C391.817 82.1844 391.543 83.0337 391.543 83.5093C391.543 84.0056 391.742 84.2498 391.942 84.4351L392.602 84.5146H393.17ZM74.88 69.1559C76.561 69.1588 79.136 69.2255 81.187 71.3801C82.547 72.8433 83.365 74.7929 83.365 76.871C83.365 79.7248 81.526 84.7715 74.943 84.8107H74.866C72.958 84.8107 71.719 84.6734 70.529 84.6695H70.472C69.849 84.6695 68.339 84.8068 67.898 84.8107H67.878C67.543 84.8107 67.347 84.7813 67.127 84.7813V84.4645L67.753 84.5008L67.786 84.4999C68.489 84.4861 69.078 84.0124 69.078 82.2207V71.129C69.078 69.6089 68.324 69.4863 67.184 69.4863V69.1559L67.241 69.1568C68.43 69.1627 69.218 69.3677 69.89 69.3677H69.917C70.492 69.3608 72.286 69.1559 74.72 69.1559H74.88ZM325.399 84.7813C325.622 84.7813 325.818 84.8107 326.157 84.8107C326.573 84.8107 328.112 84.6695 328.731 84.6695C329.962 84.6695 331.183 84.8107 333.144 84.8107C339.794 84.8107 341.634 79.7356 341.634 76.871C341.634 74.7929 340.822 72.8433 339.459 71.3801C337.362 69.1559 334.684 69.1559 332.992 69.1559C330.53 69.1559 328.707 69.3677 328.172 69.3677C327.479 69.3677 326.698 69.1559 325.467 69.1559V69.4863C326.606 69.4863 327.347 69.6089 327.347 71.129V82.2207C327.347 84.0409 326.749 84.5008 326.031 84.5008L325.399 84.4645V84.7813ZM458.282 78.0008C458.282 75.0302 456.503 69.4863 451.128 69.4863C447.286 69.4863 444.455 72.5687 444.455 76.7484C444.455 80.0396 446.738 84.4636 451.69 84.4636C455.661 84.4636 458.282 81.7147 458.282 78.0008ZM359.244 78.0008C359.244 81.7147 356.626 84.4636 352.666 84.4636C347.7 84.4636 345.421 80.0396 345.421 76.7484C345.421 72.5687 348.269 69.4863 352.108 69.4863C357.479 69.4863 359.244 75.0302 359.244 78.0008ZM145.829 78.0008C145.829 81.7147 143.214 84.4636 139.253 84.4636C134.285 84.4636 132.015 80.0396 132.015 76.7484C132.015 72.5687 134.843 69.4863 138.685 69.4863C144.07 69.4863 145.829 75.0302 145.829 78.0008ZM280.261 78.0008C280.261 81.7147 277.657 84.4636 273.706 84.4636C268.724 84.4636 266.461 80.0396 266.461 76.7484C266.461 72.5687 269.295 69.4863 273.124 69.4863C278.523 69.4863 280.261 75.0302 280.261 78.0008ZM74.176 69.8139H71.304C71.027 69.8139 70.841 70.0777 70.841 70.3425V82.8287C70.841 83.7173 71 84.339 73.54 84.339L73.692 84.338C75.263 84.3331 76.701 84.237 77.825 83.7408C81.042 82.3394 81.444 79.1011 81.444 77.3506C81.444 75.3382 80.68 73.0188 79.526 71.79C77.825 69.9689 76.347 69.8139 74.176 69.8139ZM329.123 70.3425L329.576 69.8139H332.465C334.619 69.8139 336.104 69.9689 337.802 71.79C338.962 73.0188 339.716 75.3382 339.716 77.3506C339.716 79.1011 339.304 82.3394 336.104 83.7408C334.934 84.2527 333.459 84.339 331.822 84.339C329.268 84.339 329.123 83.7173 329.123 82.8287V70.3425ZM308.268 77.3143L305.901 71.6713L303.577 77.3143H308.268ZM182.487 77.3143L180.136 71.6713L177.812 77.3143H182.487ZM393.836 77.3143H398.524L396.156 71.6713L393.836 77.3143ZM410.302 70.6004V75.8511C410.87 76.1551 411.428 76.4454 412.663 76.4454C414.191 76.4454 416.278 75.4745 416.278 73.1649C416.278 72.2392 415.707 69.6629 412.182 69.6629C410.302 69.6629 410.302 70.0787 410.302 70.6004ZM288.321 70.6004V75.8511C288.886 76.1551 289.447 76.4454 290.675 76.4454C292.228 76.4454 294.304 75.4745 294.304 73.1649C294.304 72.2392 293.736 69.6629 290.208 69.6629C288.321 69.6629 288.321 70.0787 288.321 70.6004ZM57.818 53.1597C54.418 61.2357 46.429 63.3727 42.12 63.3727C36.982 63.3727 33.675 61.5858 27.711 57.4591C20.642 52.6311 19.82 52.0829 17.801 52.0829C14.595 52.0829 13.587 53.4412 12.849 54.5935L12.017 54.1482C13.763 51.366 15.951 49.9352 19.269 49.9352C22.307 49.9352 23.582 50.3882 31.29 54.769C35.707 57.2865 39.184 59.2596 44.052 59.2596C48.269 59.2596 54.313 57.8288 56.986 53.1597H57.818ZM277.593 1.86333V0.841439C278.161 0.841439 279.203 0.762983 281.182 0.762983C283.715 0.762983 285.788 0.934605 286.363 1.30433C286.922 1.58873 287.774 2.13008 288.23 2.68907L322.541 41.5355V9.68047C322.541 5.6292 322.078 4.25132 321.141 3.24709C320.562 2.41154 318.868 1.86333 317.833 1.86333C317.271 1.86333 316.514 1.86333 315.945 1.95845V0.841439C316.429 0.762983 318.201 0.762983 319.436 0.762983C320.478 0.762983 321.79 1.02679 323.86 1.02679C325.659 1.02679 327.266 0.762983 328.673 0.762983C329.424 0.762983 329.908 0.762983 330.57 0.841439V1.95845C330.083 1.86333 329.62 1.86333 329.14 1.86333C325.659 1.86333 324.52 3.43244 324.52 9.68047V48.4474C324.52 48.7122 324.425 49.1643 323.958 49.4585L323.403 49.5448C323.207 49.5448 322.74 49.5448 322.358 49.3664L286.255 7.56608V40.0713C286.255 44.1088 286.729 45.5004 287.679 46.5047C288.23 47.3344 289.942 47.8894 290.98 47.8894C291.542 47.8894 292.293 47.8894 292.861 47.8031V48.8966C292.398 48.9927 290.591 48.9927 289.377 48.9927C288.342 48.9927 287.013 48.7122 284.94 48.7122C283.16 48.7122 281.55 48.9927 280.137 48.9927C279.376 48.9927 278.909 48.9927 278.249 48.8966V47.8031C278.716 47.8894 279.203 47.8894 279.666 47.8894C283.16 47.8894 284.287 46.3134 284.287 40.0713V5.26242L282.501 3.51482C281.084 2.13008 280.705 1.86333 278.716 1.86333H277.593ZM337.533 32.2424C337.533 40.4793 344.102 49.4929 358.311 49.4929C373.592 49.4929 379.099 37.5323 379.099 28.8521C379.099 20.6152 372.513 11.585 358.311 11.585C343.043 11.585 337.533 23.5622 337.533 32.2424ZM401.799 48.0542H400.835L387.309 18.3204C384.708 12.6206 384.353 12.6206 381.833 12.4617V11.6919C382.175 11.6095 382.608 11.5232 382.966 11.5232C383.744 11.5232 385.743 11.8704 387.475 11.8704C388.517 11.8704 390.78 11.5232 391.378 11.5232C392.163 11.5232 393.025 11.6919 394.067 11.8704V12.6206C393.462 12.5412 392.518 12.4617 392.082 12.4617C390.593 12.4617 390.255 13.3081 390.255 14.3251C390.255 15.0949 390.434 15.343 391.026 16.8033L402.831 42.1161L412.636 19.407C413.421 17.7183 413.509 16.1825 413.509 15.2606C413.509 13.9789 412.734 12.6206 412.295 12.5412C412.034 12.5412 411.507 12.4617 410.908 12.4617C410.38 12.4617 409.951 12.5412 409.518 12.5412V11.8704C409.69 11.7743 410.559 11.6095 410.992 11.6095C411.774 11.6095 413.942 11.9527 414.628 11.9527C415.427 11.9527 417.672 11.5232 418.542 11.5232C419.063 11.5232 419.675 11.5232 420.365 11.6095V12.4617C420.013 12.3725 419.759 12.3725 419.496 12.3725C419.063 12.3725 417.067 12.3725 415.159 16.7768L401.799 48.0542ZM128.265 47.5158C128.871 47.5982 129.209 47.6815 130.298 47.6815C131.161 47.6815 132.764 47.3569 134.709 47.3569C136.992 47.3569 137.854 47.6815 138.774 47.6815C139.63 47.6815 140.394 47.5982 141.071 47.5158V46.6969C140.557 46.7655 139.961 46.8489 139.373 46.8489C136.231 46.8489 135.561 43.6303 135.561 42.0543V17.3132L162.667 47.5158C163.015 47.9355 163.347 48.0051 163.597 48.0051C164.02 48.0051 164.619 47.8463 164.619 47.2549V18.7176C164.619 14.6565 165.471 14.0916 166.729 13.2492C168.518 13.2492 168.684 13.2492 169.699 13.4169V12.601C168.941 12.4294 168.343 12.3431 167.328 12.3431C166.391 12.3431 165.038 12.7471 164.115 12.7471C162.843 12.7471 161.652 12.3431 160.12 12.3431C159.447 12.3431 158.764 12.3431 157.922 12.5059V13.2492C158.439 13.1659 158.94 13.1659 159.447 13.1659C160.039 13.1659 160.55 13.1659 161.138 13.2492C162.843 14.7458 163.015 17.0651 163.015 19.3815V41.6414L138.006 14.0093C136.66 12.5059 134.8 12.3431 132.172 12.3431C130.819 12.3431 129.456 12.4294 128.265 12.6736V13.5062C128.949 13.4169 129.456 13.3385 130.142 13.3385C131.665 13.3385 132.172 13.7513 133.187 14.8252L134.032 15.7471V39.8173C134.032 40.0713 133.944 45.4504 131.915 46.6969L130.142 46.8489C129.547 46.8489 128.698 46.7655 128.265 46.6969V47.5158ZM0 26.1719C0 37.0321 7.888 47.9591 25.506 47.9591C41.846 47.9591 50.38 33.8115 50.38 23.7564C50.38 9.23817 40 0 25.327 0C11.101 0 0 11.5644 0 26.1719ZM341.616 28.6011C341.616 18.7048 348.374 13.3394 356.806 13.3394C367.278 13.3394 374.563 23.0474 374.563 32.6788C374.563 42.5574 367.819 47.9434 359.37 47.9434C348.891 47.9434 341.616 38.2158 341.616 28.6011ZM58.127 13.3385C58.979 13.2492 59.649 13.1659 60.677 13.1659C62.795 13.1659 63.549 15.8324 63.549 18.8L63.64 33.4506C63.64 37.9275 63.64 47.9355 77.609 47.9355C91.507 47.9355 92.522 38.7434 92.522 33.3673V19.206C92.522 14.6634 94.135 13.2492 96.503 13.2492C96.845 13.2492 97.271 13.2492 97.613 13.3385V12.601C96.933 12.3568 96.845 12.3568 95.742 12.3568C94.382 12.3568 92.272 12.7471 91.338 12.7471C90.574 12.7471 88.203 12.3568 86.934 12.3568C86.427 12.3568 85.916 12.4294 85.399 12.601V13.3385C85.839 13.2492 86.177 13.2492 86.502 13.2492C90.161 13.2492 90.909 16.9004 90.909 20.118V33.5399C90.909 36.5163 90.909 46.4517 79.06 46.4517C70.584 46.4517 67.787 40.0713 67.787 35.5052V17.8085C67.787 16.0678 69.137 13.1659 71.092 13.1659C71.941 13.1659 72.455 13.2492 73.033 13.4208V12.6843C72.614 12.5059 72.103 12.3568 70.419 12.3568C69.658 12.3568 65.839 12.7471 64.993 12.7471C64.483 12.7471 61.682 12.3568 61.009 12.3568L59.064 12.4294L58.127 12.601V13.3385ZM433.778 31.6098L430.02 41.4727C429.594 42.6358 429.411 43.6499 429.411 44.2285C429.411 45.4014 429.929 46.8185 431.549 46.8185C432.151 46.8185 432.75 46.7489 433.358 46.7489V47.4893C432.926 47.5815 432.411 47.5815 431.897 47.5815C430.524 47.5815 428.559 47.4138 427.28 47.4138C425.653 47.4138 424.361 47.5815 423.509 47.5815C422.728 47.5815 422.488 47.5815 422.048 47.4893V46.7489C422.488 46.7489 422.904 46.8185 423.343 46.8185C423.773 46.8185 424.625 46.7489 424.71 46.6636L426.083 45.573C426.759 44.5688 427.703 43.2301 428.038 42.3181L439.944 11.5242H440.891L452.803 40.8912C454.167 44.2285 454.684 45.1503 455.624 46.5017C455.705 46.6636 456.903 46.7489 457.343 46.7489C457.759 46.7489 458.702 46.5017 458.963 46.5017V47.4138C458.442 47.4893 457.938 47.5815 457.255 47.5815C456.48 47.5815 454.004 47.252 452.12 47.252C450.138 47.252 448.427 47.5815 447.229 47.5815C446.715 47.5815 446.289 47.5815 445.677 47.4893V46.5773C446.204 46.6636 446.803 46.7489 447.229 46.7489C447.571 46.7489 448.173 46.6636 448.525 46.5773C448.941 46.5017 449.54 45.8172 449.54 44.7306C449.54 43.895 449.286 43.2301 449.11 42.8104L444.493 31.6098H433.778ZM221.044 31.7138L217.748 40.289L217.292 41.4737C216.879 42.627 216.717 43.6312 216.717 44.1991C216.717 45.3592 217.218 46.7665 218.821 46.7665C219.42 46.7665 220.025 46.6979 220.61 46.6979H220.621V47.4442C220.178 47.5168 219.678 47.5168 219.17 47.5168C217.824 47.5168 215.869 47.3549 214.604 47.3549C212.987 47.3549 211.719 47.5168 210.867 47.5168C210.226 47.5168 209.945 47.5168 209.622 47.4736C209.56 47.4658 209.496 47.456 209.428 47.4442V46.6979C209.851 46.6979 210.274 46.7665 210.7 46.7665C211.119 46.7665 211.965 46.6979 212.049 46.6116L213.406 45.525C213.681 45.119 214 44.66 214.304 44.1971C214.743 43.5234 215.152 42.8408 215.348 42.3063L226.182 14.3103L227.135 11.8458H228.072L229.801 16.1119L239.849 40.899C241.202 44.1991 241.689 45.115 242.636 46.4527C242.724 46.6116 243.904 46.6979 244.327 46.6979C244.382 46.6979 244.444 46.694 244.511 46.6871C244.861 46.6518 245.365 46.538 245.69 46.4831C245.798 46.4645 245.885 46.4527 245.941 46.4527V47.3549C245.434 47.4442 244.92 47.5168 244.23 47.5168C243.479 47.5168 241.034 47.1902 239.167 47.1902C237.212 47.1902 235.521 47.5168 234.33 47.5168C233.819 47.5168 233.4 47.5168 232.805 47.4442H232.803V46.5253L232.805 46.5263V46.5223C233.107 46.5753 233.44 46.6273 233.748 46.6606C233.96 46.6832 234.159 46.6979 234.329 46.6979C234.435 46.6979 234.565 46.6891 234.703 46.6753C235.013 46.6449 235.365 46.5841 235.602 46.5223C235.751 46.4988 235.92 46.4007 236.077 46.2379C236.368 45.9329 236.615 45.4034 236.615 44.7051C236.615 43.8725 236.368 43.2086 236.199 42.8055L231.63 31.7138H221.044ZM186 47.5148H183.122V46.6126C183.71 46.6989 184.146 46.6989 184.735 46.6989L184.931 46.6979C185.396 46.6969 185.908 46.6881 186.426 46.6126C187.958 44.8551 188.635 44.2 188.635 39.5515V16.8229C188.635 14.325 188.635 13.6739 185.334 13.6739C178.745 13.6739 176.751 16.7248 175.558 18.7147L175.501 18.8088L174.984 18.4057C176.1 16.4787 177.111 14.8331 177.449 14.0799C177.781 13.4189 178.217 12.4284 178.464 11.8429C178.802 11.7703 179.141 11.7703 179.401 11.7703L179.415 11.7713C179.72 11.7821 182.592 12.1067 183.686 12.1087H183.742C183.832 12.1077 183.908 12.1038 183.967 12.0979C185.591 12.1803 189.826 12.3558 191.851 12.3558L191.936 12.3548C192.864 12.3499 195.534 12.2666 196.759 12.2666L201.251 11.8429C204.052 11.8429 204.813 12.7491 204.813 14.6614C204.813 15.5529 203.905 17.171 201.86 19.5188L201.762 19.6306L201.16 19.3796C202.191 17.8928 202.611 17.3152 202.611 16.2413C202.611 13.8278 199.824 13.7523 196.264 13.7494H195.917C193.042 13.7494 192.951 14.4967 192.951 15.3361V41.5404C192.951 45.6976 194.737 46.6989 195.836 46.6989L198.024 46.6126V47.4452C196.766 47.506 196.609 47.5138 195.858 47.5148H195.494C194.304 47.5148 191.513 47.1872 190.411 47.1872C189.329 47.1872 186.677 47.504 186.029 47.5148H186ZM107.141 47.5148C106.718 47.5148 105.957 47.4452 105.527 47.3559V46.5233C106.129 46.6126 106.796 46.6126 107.391 46.6126H107.608C108.109 46.6116 108.567 46.6018 109.085 46.5233C110.185 45.4495 110.611 44.8748 110.611 41.2207V18.2272C110.611 15.3254 110.273 14.5791 108.835 13.3365C108.24 13.262 107.713 13.2522 107.137 13.2512H106.887C106.313 13.2512 105.813 13.2512 105.167 13.3287L105.104 13.3365V12.6029C105.957 12.4313 106.545 12.346 107.81 12.346H107.848C108.686 12.3558 112.062 12.6863 112.735 12.6863L112.776 12.6853C113.688 12.6755 117.146 12.346 117.812 12.346H117.843C118.511 12.3509 119.431 12.5059 120.01 12.6029V13.3365C119.344 13.262 119.137 13.2522 118.468 13.2512H118.15C116.029 13.2512 114.923 14.6555 114.923 16.7297V42.8065C114.923 44.6168 115.86 45.8662 116.547 46.5233C117.135 46.6126 117.646 46.6989 118.224 46.6989L118.281 46.6979C118.861 46.693 119.44 46.6096 120.01 46.5233V47.3559C119.535 47.505 119.434 47.5138 118.723 47.5148H118.573C117.558 47.5148 113.317 47.1872 112.485 47.1872C111.642 47.1872 108.014 47.504 107.178 47.5148H107.141ZM5.05 23.3102C5.05 10.7583 13.306 1.52695 24.495 1.52695C40.196 1.52695 45.333 19.0912 45.333 27.0771C45.333 38.1923 37.713 46.3537 26.149 46.3537C11.649 46.3537 5.05 32.721 5.05 23.3102ZM221.711 30.3948H231.116L226.195 18.4616L221.711 30.3948ZM443.972 30.2712L439.014 18.2282L434.458 30.2712H443.972Z" fill="#FAF6D2"/>
</svg>
